<?xml version="1.0" encoding="UTF-8"?>
<svg enable-background="new 0 0 64 64" version="1.1" viewBox="0 0 64 64" xml:space="preserve" xmlns="http://www.w3.org/2000/svg"><style type="text/css">
	.st0{fill:#231F20;}
</style><path class="st0" d="m29.9 16.1c0.2 0.2 0.3 0.5 0.3 0.7s-0.1 0.5-0.3 0.7l-16.3 16.3h39.3c0.6 0 1 0.4 1 1s-0.4 1-1 1h-39.3l16.3 16.3c0.2 0.2 0.3 0.5 0.3 0.7s-0.1 0.5-0.3 0.7c-0.4 0.4-1 0.4-1.4 0l-18-18c-0.1-0.1-0.2-0.2-0.2-0.3-0.1-0.2-0.1-0.5 0-0.8 0.1-0.1 0.1-0.2 0.2-0.3l18-18c0.3-0.4 1-0.4 1.4 0z"/></svg>
