<?xml version="1.0" encoding="UTF-8"?>
<svg enable-background="new 0 0 64 64" version="1.1" viewBox="0 0 64 64" xml:space="preserve" xmlns="http://www.w3.org/2000/svg"><style type="text/css">
	.st0{fill:#231F20;}
</style><path class="st0" d="m34.1 53.5c-0.2-0.2-0.3-0.5-0.3-0.7s0.1-0.5 0.3-0.7l16.3-16.3h-39.2c-0.6 0-1-0.4-1-1s0.4-1 1-1h39.3l-16.4-16.3c-0.2-0.2-0.3-0.5-0.3-0.7s0.1-0.5 0.3-0.7c0.4-0.4 1-0.4 1.4 0l18 18c0.1 0.1 0.2 0.2 0.2 0.3 0.1 0.2 0.1 0.5 0 0.8-0.1 0.1-0.1 0.2-0.2 0.3l-18 18c-0.3 0.4-1 0.4-1.4 0z"/></svg>
